<svg xmlns="http://www.w3.org/2000/svg" width="24" height="24" viewBox="0 0 24 24">
  <g id="组_2884" data-name="组 2884" transform="translate(-1826 -896)">
    <g id="组_2830" data-name="组 2830" transform="translate(204 1)">
      <rect id="矩形_1278" data-name="矩形 1278" width="24" height="24" rx="4" transform="translate(1622 895)" fill="#2175b5"/>
    </g>
    <path id="iconset0266" d="M56.485,47.03h-.727V43.394a.729.729,0,0,0-.727-.727H46.3a.729.729,0,0,0-.727.727V47.03h-.727a2.188,2.188,0,0,0-2.182,2.182V55.03a2.188,2.188,0,0,0,2.182,2.182h.727v2.727a.729.729,0,0,0,.727.727H55.03a.729.729,0,0,0,.727-.727V57.212h.727a2.188,2.188,0,0,0,2.182-2.182V49.212A2.188,2.188,0,0,0,56.485,47.03ZM46.3,43.394H55.03V47.03H46.3ZM55.03,57.212v2.727H46.3V50.576H55.03Zm2.909-2.182a1.459,1.459,0,0,1-1.455,1.455h-.727V50.576a.729.729,0,0,0-.727-.727H46.3a.729.729,0,0,0-.727.727v5.909h-.727a1.459,1.459,0,0,1-1.455-1.455V49.212a1.459,1.459,0,0,1,1.455-1.455H56.485a1.459,1.459,0,0,1,1.455,1.455Zm-2.182-5.818Z" transform="translate(1787.333 856.333)" fill="#fff"/>
    <rect id="矩形_1283" data-name="矩形 1283" width="6.395" height="1" rx="0.5" transform="translate(1835 914)" fill="#fff"/>
    <rect id="矩形_1284" data-name="矩形 1284" width="3" height="1" rx="0.5" transform="translate(1835 908)" fill="#fff"/>
    <rect id="矩形_1285" data-name="矩形 1285" width="4" height="1" rx="0.5" transform="translate(1835 910)" fill="#fff"/>
    <rect id="矩形_1286" data-name="矩形 1286" width="5.395" height="1" rx="0.5" transform="translate(1835 912)" fill="#fff"/>
  </g>
</svg>
