<svg xmlns="http://www.w3.org/2000/svg" width="27.902" height="26.007" viewBox="0 0 27.902 26.007">
  <g id="组_2879" data-name="组 2879" transform="translate(-67 -107.993)">
    <path id="路径_35" data-name="路径 35" d="M135.682,276.532H125.09a.088.088,0,0,0-.078.088v1.787a.088.088,0,0,0,.078.088h10.592a.088.088,0,0,0,.078-.088V276.62A.088.088,0,0,0,135.682,276.532Zm-3.368,3.9H125.09a.078.078,0,0,0-.088.078v1.806a.078.078,0,0,0,.088.078h7.224a.078.078,0,0,0,.078-.078v-1.8a.078.078,0,0,0-.078-.078Zm-2.987,4.393H125.09a.088.088,0,0,0-.078.088v1.757a.088.088,0,0,0,.078.088h4.237a.078.078,0,0,0,.127-.088v-1.747a.078.078,0,0,0-.078-.088Z" transform="translate(-54.742 -161.207)" fill="#4e8cee"/>
    <g id="组_2878" data-name="组 2878">
      <path id="路径_33" data-name="路径 33" d="M22.182,5.274a.82.82,0,0,1,.82.82V26.6a.82.82,0,0,1-.82.82H6.094a.83.83,0,0,1-.82-.82V6.094a.83.83,0,0,1,.82-.82H22.182m0-1.64H6.094a2.46,2.46,0,0,0-2.46,2.46V26.6a2.46,2.46,0,0,0,2.46,2.46H22.182a2.46,2.46,0,0,0,2.46-2.46V6.094A2.46,2.46,0,0,0,22.182,3.634Z" transform="translate(63.366 104.36)" fill="#4e8cee"/>
      <g id="椭圆_2" data-name="椭圆 2" transform="translate(79.902 119)" fill="#fff" stroke="#4e8cee" stroke-width="1">
        <circle cx="7.5" cy="7.5" r="7.5" stroke="none"/>
        <circle cx="7.5" cy="7.5" r="7" fill="none"/>
      </g>
      <path id="ren-2" d="M141.347,63.507c.034.019.067.039.1.062l.1.068v.119a2.275,2.275,0,0,1-.126.86.868.868,0,0,1-.372.451,4.5,4.5,0,0,1-.431,1.084,1.743,1.743,0,0,1-.9.784,4.041,4.041,0,0,1-1.078.09,3.325,3.325,0,0,1-1.023-.127,1.793,1.793,0,0,1-.816-.8,4.7,4.7,0,0,1-.388-1.019.853.853,0,0,1-.385-.449,2.212,2.212,0,0,1-.132-.874v-.12l.1-.067q.038-.025.076-.047c-.111-1.381-.069-1.892.443-2.475a4.247,4.247,0,0,1,4.3-.047A2.4,2.4,0,0,1,141.347,63.507Zm-2.1,3.992.015.316-.188.31.261,1.716,1.07-2.3,1.63-.056a5.463,5.463,0,0,1,1.249,3.9H134.2c.023-1.075.22-2.909,1.29-3.844l1.473.013,1.38,2.275.259-1.7-.188-.309.015-.316A5.787,5.787,0,0,1,139.248,67.5Zm1.219-4.483a3.568,3.568,0,0,1-2.374-.191c-.293-.165-.722.173-1.073.138a2.636,2.636,0,0,0-.237.7l-.039.207-.208-.021a.286.286,0,0,0-.121.016.374.374,0,0,0-.057.023,1.612,1.612,0,0,0,.1.563.378.378,0,0,0,.22.237l.122.038.034.122a4.634,4.634,0,0,0,.378,1.026,1.346,1.346,0,0,0,.605.606,3.152,3.152,0,0,0,.835.086,3.773,3.773,0,0,0,.915-.063,1.3,1.3,0,0,0,.664-.588,4.262,4.262,0,0,0,.409-1.072l.031-.116.116-.04a.385.385,0,0,0,.213-.242,1.613,1.613,0,0,0,.093-.554.3.3,0,0,0-.051-.021.316.316,0,0,0-.117-.018l-.2.013-.038-.2A2.705,2.705,0,0,0,140.466,63.017Zm0,0" transform="translate(-51.313 60.185)" fill="#4e8cee"/>
    </g>
  </g>
</svg>
