<svg xmlns="http://www.w3.org/2000/svg" width="16" height="12.673" viewBox="0 0 16 12.673">
  <path id="paizhaoxiangji" d="M79.419,136.217h-.358c-.432-.739-1.083-1.408-1.765-1.408H71.862c-.681,0-1.333.669-1.765,1.408H68.419v-.469a.5.5,0,0,0-1,0v.469a1.944,1.944,0,0,0-2,1.878v7.51a1.944,1.944,0,0,0,2,1.878h12a1.944,1.944,0,0,0,2-1.878v-7.51A1.944,1.944,0,0,0,79.419,136.217Zm-7.557-.469H77.3c.144,0,.367.194.587.469H71.275C71.5,135.941,71.719,135.747,71.862,135.747Zm8.557,9.857a.972.972,0,0,1-1,.939h-12a.972.972,0,0,1-1-.939v-5.163H69.3a3.754,3.754,0,0,0-.238,1.3,4.259,4.259,0,0,0,8.5,0,3.743,3.743,0,0,0-.238-1.3h3.1Zm-10.36-3.858a3.257,3.257,0,1,1,3.25,3.051A3.159,3.159,0,0,1,70.059,141.746Zm10.36-2.244h-3.6a4.4,4.4,0,0,0-7.023,0H66.419v-1.408a.971.971,0,0,1,1-.939h12a.972.972,0,0,1,1,.939V139.5Z" transform="translate(-65.419 -134.809)" fill="#2398f1"/>
</svg>
