<svg xmlns="http://www.w3.org/2000/svg" width="24" height="24" viewBox="0 0 24 24">
  <g id="组_2883" data-name="组 2883" transform="translate(-1797 -896)">
    <g id="组_2829" data-name="组 2829" transform="translate(175 1)">
      <rect id="矩形_1278" data-name="矩形 1278" width="24" height="24" rx="4" transform="translate(1622 895)" fill="#24bbf2"/>
    </g>
    <g id="组_2834" data-name="组 2834" transform="translate(63 -94)">
      <path id="iconset0266" d="M55.979,46.437V43.3a.713.713,0,0,0-.771-.628H45.952a.713.713,0,0,0-.771.628v3.142ZM45.952,43.3h9.256v3.142H45.952Z" transform="translate(1695.333 951.174)" fill="#fff"/>
      <g id="矩形_1282" data-name="矩形 1282" transform="translate(1738 997.04)" fill="#24bbf2" stroke="#fff" stroke-width="0.6">
        <rect width="16" height="11" rx="2" stroke="none"/>
        <rect x="0.3" y="0.3" width="15.4" height="10.4" rx="1.7" fill="none"/>
      </g>
      <path id="iconset0329" d="M134.364,45.3h-.8v3.115h.8Zm-3.978,0h-.8v3.115h.8Zm2.387,0h-1.591v3.115h1.591Zm4.773,0h-.8v3.115h.8Zm-1.591,0h-.8v3.115h.8Zm2.784-1.246H128.4c-.239,0-.4.125-.4.312V55.582c0,.187.159.312.4.312a.414.414,0,0,0,.278-.093l1.671-1.059L131.7,55.8a.462.462,0,0,0,.557,0l1.313-1.028,1.313,1.028a.462.462,0,0,0,.557,0l1.352-1.059,1.671,1.059a.414.414,0,0,0,.278.093c.239,0,.4-.125.4-.312V44.367C139.138,44.18,138.979,44.055,138.74,44.055Zm-.4,10.873-1.313-.81a.461.461,0,0,0-.557,0l-1.313,1.028-1.313-1.028a.461.461,0,0,0-.557,0l-1.313,1.028-1.313-1.028a.461.461,0,0,0-.557,0l-1.313.81V44.678h9.547Zm-4.773-5.265h-3.978v.623h3.978Zm3.978,1.246h-7.955v.623h7.955Zm-2.387,1.246h-5.569v.623h5.569Z" transform="translate(1612.514 955.264)" fill="#fff"/>
    </g>
  </g>
</svg>
