<svg xmlns="http://www.w3.org/2000/svg" width="24.305" height="24.305" viewBox="0 0 24.305 24.305">
  <g id="组_2922" data-name="组 2922" transform="translate(-1803.935 -256)">
    <rect id="矩形_1277" data-name="矩形 1277" width="24.305" height="24.305" rx="4" transform="translate(1803.935 256)" fill="#2399F1"/>
    <path id="xiugai" d="M69.969,61.111l-2.137-2.223a2.119,2.119,0,0,0-2.907,0L57.316,66.5a1.373,1.373,0,0,0-.427.94v3.505a.907.907,0,0,0,1.026,1.026H61.42a1.373,1.373,0,0,0,.94-.427l7.523-7.609A1.94,1.94,0,0,0,69.969,61.111Zm-8.635,9.746h-3.42V67.352a.3.3,0,0,0,.085.171l3.163,3.163a.265.265,0,0,0,.171.085C61.42,70.857,61.42,70.857,61.334,70.857Zm.769-.513A.648.648,0,0,0,61.933,70L58.77,66.839a.444.444,0,0,0-.342-.171l5.13-5.13,3.676,3.676Zm7.1-7.1-1.2,1.2-3.676-3.676,1.2-1.2a.984.984,0,0,1,1.453,0l2.137,2.223A.928.928,0,0,1,69.2,63.248Z" transform="translate(1752.833 202.318)" fill="#fff"/>
  </g>
</svg>
