<svg xmlns="http://www.w3.org/2000/svg" width="85" height="74.58" viewBox="0 0 85 74.58">
  <g id="组_5725" data-name="组 5725" transform="translate(-0.512 -63.2)">
    <path id="路径_273" data-name="路径 273" d="M78.264,63.2H7.76A7.4,7.4,0,0,0,.512,70.741v46.552a7.971,7.971,0,0,0,7.727,7.729h30.91v7.727H19.832v5.031H66.192v-5.031H46.881v-7.727h30.91a7.968,7.968,0,0,0,7.721-7.729V70.741A7.393,7.393,0,0,0,78.264,63.2Zm2.22,56.794-23.717-.207.013-.037-2.406.013-1.228-.013.005.013-47.608.231V68.231H80.484v51.764Z" transform="translate(0)" fill="#fff"/>
    <path id="路径_274" data-name="路径 274" d="M323.873,246.4c-8.518,0-15.629-1.972-17.394-4.617a2.307,2.307,0,0,0-.428,1.271c0,3.252,7.982,5.893,17.825,5.893s17.822-2.642,17.822-5.893a2.3,2.3,0,0,0-.428-1.271C339.5,244.43,332.391,246.4,323.873,246.4Zm0-22.533c9.838,0,17.822-3.252,17.822-7.264s-7.982-7.264-17.822-7.264-17.825,3.252-17.825,7.264,7.985,7.264,17.825,7.264ZM316,229.592v-2.548c-4.778-.78-8.348-2.244-9.525-4.007a2.293,2.293,0,0,0-.428,1.274C306.048,226.627,310.114,228.628,316,229.592Zm15.734-2.548v2.548c5.893-.965,9.957-2.965,9.957-5.281a2.293,2.293,0,0,0-.428-1.274C340.1,224.8,336.517,226.264,331.739,227.044Zm0,6.308V235.9c5.893-.962,9.957-2.962,9.957-5.283a2.293,2.293,0,0,0-.428-1.271C340.1,231.108,336.517,232.572,331.739,233.352ZM316,235.9v-2.548c-4.778-.78-8.348-2.244-9.525-4.007a2.3,2.3,0,0,0-.428,1.271C306.048,232.938,310.114,234.941,316,235.9Zm0,6.268v-2.542c-4.778-.786-8.348-2.244-9.525-4.012a2.318,2.318,0,0,0-.428,1.277C306.048,239.206,310.114,241.206,316,242.168Zm15.734-2.542v2.542c5.893-.962,9.957-2.962,9.957-5.278a2.318,2.318,0,0,0-.428-1.277C340.1,237.381,336.517,238.84,331.739,239.626Zm-8.785,4.452a1.362,1.362,0,0,0,1.481,0,.761.761,0,0,0,.343-.687l.026-.914a6.2,6.2,0,0,0,3.652-1.274,3.626,3.626,0,0,0,1.314-2.925,3.4,3.4,0,0,0-.411-1.717,4,4,0,0,0-1.087-1.214,6.662,6.662,0,0,0-1.515-.84q-.845-.333-1.708-.616l.139-4.06a3,3,0,0,1,.658.281c.182.111.338.2.468.275a4.213,4.213,0,0,0,.644.377,1.769,1.769,0,0,0,.78.162,1.371,1.371,0,0,0,1.053-.338,1.22,1.22,0,0,0,.318-.874,1.168,1.168,0,0,0-.247-.619,3.383,3.383,0,0,0-.729-.724,5.982,5.982,0,0,0-1.206-.678,7.358,7.358,0,0,0-1.688-.477l.057-1.166a.761.761,0,0,0-.343-.675,1.283,1.283,0,0,0-1.478,0,.761.761,0,0,0-.343.675l-.028,1.05a5.982,5.982,0,0,0-3.782,1.3,3.873,3.873,0,0,0-1.345,3.045,3.163,3.163,0,0,0,.423,1.68,4.123,4.123,0,0,0,1.126,1.2,7.642,7.642,0,0,0,1.563.854c.576.23,1.161.448,1.742.65l-.136,4.126a4.1,4.1,0,0,1-1.615-.769,5.153,5.153,0,0,0-.658-.428,1.9,1.9,0,0,0-.826-.224c-.953,0-1.427.366-1.427,1.1a1.435,1.435,0,0,0,.428,1.01,3.847,3.847,0,0,0,1.084.789,8.172,8.172,0,0,0,1.45.576,12.76,12.76,0,0,0,1.51.346l-.026,1.033A.761.761,0,0,0,322.954,244.078Zm2.02-7.437a4.148,4.148,0,0,1,1.149.76,1.41,1.41,0,0,1,.44,1.039,1.46,1.46,0,0,1-.454,1.146,2.344,2.344,0,0,1-1.246.514l.111-3.459Zm-3.294-4.256a1.348,1.348,0,0,1-.471-1.064,1.511,1.511,0,0,1,.5-1.186,2.27,2.27,0,0,1,1.317-.536l-.108,3.521a4.536,4.536,0,0,1-1.234-.735Z" transform="translate(-280.772 -135.262)" fill="#fff"/>
  </g>
</svg>
