<svg xmlns="http://www.w3.org/2000/svg" width="85" height="85.374" viewBox="0 0 85 85.374">
  <g id="keshiguanli" transform="translate(-6.113 -3.904)">
    <path id="路径_303" data-name="路径 303" d="M66.62,102.64H23.155a1.62,1.62,0,0,1-1.619-1.62V20.962a1.618,1.618,0,0,1,1.619-1.618H66.619a1.62,1.62,0,0,1,1.618,1.618V101.02A1.618,1.618,0,0,1,66.62,102.64ZM24.774,99.4H65V22.581H24.774V99.4Zm78.069,3.237H66.62A1.62,1.62,0,0,1,65,101.02V42.8a1.62,1.62,0,0,1,1.619-1.619h36.223a1.62,1.62,0,0,1,1.619,1.619v58.221A1.62,1.62,0,0,1,102.844,102.64ZM68.238,99.4h32.986V44.416H68.238V99.4ZM36.027,35.52h3.237V71.909H36.027Zm14.485,0h3.237V71.909H50.512Zm41.471,67.12H77.494a1.618,1.618,0,0,1-1.618-1.62V86.468a1.617,1.617,0,0,1,1.618-1.618H91.983A1.62,1.62,0,0,1,93.6,86.468V101.02A1.62,1.62,0,0,1,91.983,102.64ZM79.109,99.4H90.363V88.086H79.109ZM52.13,102.64H37.646a1.62,1.62,0,0,1-1.619-1.62V86.468a1.619,1.619,0,0,1,1.619-1.618H52.13a1.619,1.619,0,0,1,1.618,1.618V101.02a1.619,1.619,0,0,1-1.618,1.62ZM39.263,99.4H50.511V88.086H39.263ZM77.494,70.291H91.983v3.237H77.494V70.291Zm0-14.553H91.983v3.237H77.494V55.738Z" transform="translate(-14.386 -14.401)" fill="#fff"/>
    <path id="路径_304" data-name="路径 304" d="M88.21,89.278H9.017a2.91,2.91,0,0,1-2.9-2.908V6.809a2.908,2.908,0,0,1,2.9-2.9H52.21a2.907,2.907,0,0,1,2.9,2.9V25.6H88.208a2.908,2.908,0,0,1,2.9,2.9v57.86a2.908,2.908,0,0,1-2.9,2.909ZM80.3,86.683H88.21a.311.311,0,0,0,.312-.313V28.508a.312.312,0,0,0-.312-.312H55.115v.625H87.9V86.061H80.321v.309a2.653,2.653,0,0,1-.017.313ZM62.7,86.06v.309a.311.311,0,0,0,.312.313h14.4a.312.312,0,0,0,.312-.313V86.06Zm-7.607.624h5.03q-.015-.156-.016-.313v-.309h-5v.309A2.4,2.4,0,0,1,55.1,86.683Zm-3.2-1.92v1.6c0,.348.626.348.626,0V28.2h-.311a.313.313,0,0,0-.315.312h-2.59V9.712H11.922V83.467h8.591V71.908a2.907,2.907,0,0,1,2.9-2.9H37.811a2.908,2.908,0,0,1,2.9,2.9V83.467h8.591V28.508H51.9V84.764Zm-11.2,1.92h8.624a2.653,2.653,0,0,1-.017-.313v-.309H40.715v.309A2.655,2.655,0,0,1,40.7,86.683ZM23.1,86.06v.309a.311.311,0,0,0,.312.313H37.81a.312.312,0,0,0,.312-.313V86.06ZM9.017,6.5a.312.312,0,0,0-.312.312V86.369a.311.311,0,0,0,.312.313H20.529a2.652,2.652,0,0,1-.017-.313V86.06H9.33V7.121H51.9v18.5a3.08,3.08,0,0,1,.315-.016h.311V6.809a.312.312,0,0,0-.311-.312H9.017Zm71.3,76.972H85.3V31.413H55.115V83.468h5V71.909a2.908,2.908,0,0,1,2.9-2.9h14.4a2.907,2.907,0,0,1,2.9,2.9V83.468Zm-3.217,0h.625V71.909a.313.313,0,0,0-.312-.312h-14.4a.312.312,0,0,0-.312.312V83.468h.622V72.224H77.105V83.468Zm-11.184,0h8.594V74.814H65.92Zm-28.422,0h.625V71.909a.313.313,0,0,0-.312-.312H23.417a.312.312,0,0,0-.312.312V83.468h.625V72.224H37.5V83.468Zm-11.176,0h8.584V74.814H26.322ZM78.714,60.342H61.721v-5.8H78.714Zm-14.4-2.59H76.12v-.621H64.314Zm-23.6.983h-5.81V19.981h5.81ZM37.5,56.143h.625V22.574H37.5ZM26.322,58.734H20.514V19.981h5.808ZM23.1,56.143h.625V22.574H23.1Zm55.61-10.26H61.721V40.074H78.714Zm-14.4-2.593H76.12v-.624H64.314Z" transform="translate(0 0)" fill="#fff"/>
  </g>
</svg>
