<svg xmlns="http://www.w3.org/2000/svg" width="85" height="72.558" viewBox="0 0 85 72.558">
  <path id="路径_306" data-name="路径 306" d="M251.941,250.76c-.012-.037-.012-.074-.025-.1l-18.6-32.443a2.22,2.22,0,0,0-1.942-1.119H189.021a2.228,2.228,0,0,0-1.918,1.082l-19.572,32.431c-.025.037-.012.086-.037.123a2.359,2.359,0,0,0-.27.922c0,.037-.025.061-.025.1V287.42a2.23,2.23,0,0,0,2.237,2.237,1.982,1.982,0,0,0,.479-.049c3.6-.258,49.581-.111,80.032.049a2.849,2.849,0,0,0,1.586-.652,2.264,2.264,0,0,0,.664-1.586v-35.64a2.03,2.03,0,0,0-.258-1.02Zm-61.653-29.185h39.807l16.031,27.956H223.69a2.23,2.23,0,0,0-2.237,2.237v9.921H197.971v-9.921a2.23,2.23,0,0,0-2.237-2.237H173.408Zm57.449,63.6c-51.941-.258-69.706-.283-76.049-.012V254.006H193.5v9.921a2.23,2.23,0,0,0,2.237,2.237H223.69a2.23,2.23,0,0,0,2.237-2.237v-9.921h21.809Z" transform="translate(-167.2 -217.1)" fill="#fff"/>
</svg>
