<svg xmlns="http://www.w3.org/2000/svg" width="85" height="79.257" viewBox="0 0 85 79.257">
  <g id="guanlizhongxin" transform="translate(-5.029 -55.206)">
    <path id="路径_152" data-name="路径 152" d="M403.21,430.878a8.323,8.323,0,1,0,8.321,8.323A8.332,8.332,0,0,0,403.21,430.878Zm0,13.944a5.621,5.621,0,1,1,5.62-5.621A5.627,5.627,0,0,1,403.21,444.822Z" transform="translate(-357.825 -344.852)" fill="#fff"/>
    <path id="路径_153" data-name="路径 153" d="M86.8,99.973V90.8c0-1.9-2.97-2.618-4.017-2.724l-4.16-.394A32.905,32.905,0,0,0,73.85,76.764l2.278-2.914c1.11-1.355,1.218-3.175.243-4.15l-5.806-5.774c-.974-.974-2.764-.839-4.161.3L63.35,66.724a32.713,32.713,0,0,0-10.757-4.256l-.438-3.52c-.1-1.009-.819-3.743-2.725-3.743H41.253c-1.9,0-2.622,2.734-2.722,3.746l-.454,3.3a33.13,33.13,0,0,0-10.308,4.621L24.28,64.115c-1.364-1.113-3.188-1.227-4.156-.258l-5.777,5.8c-.972.974-.832,2.766.313,4.164l2.98,3.657a32.53,32.53,0,0,0-4.05,10.1l-5.745.494A2.846,2.846,0,0,0,5.03,90.8v8.177A2.844,2.844,0,0,0,7.839,101.7l5.872.5a32.56,32.56,0,0,0,4.09,9.932l-3.122,3.819c-1.146,1.4-1.281,3.183-.313,4.149l5.777,5.783c.969.97,2.75.842,4.143-.3l3.774-3.066a32.816,32.816,0,0,0,9.985,4.239l.488,4.631c.175,1.75,1.346,3.07,2.722,3.07h8.177c1.376,0,2.547-1.32,2.721-3.063l.455-4.338c.341,0,.7.02,1.072.04a9.225,9.225,0,0,0,3.027-.187A20.459,20.459,0,0,0,86.8,99.973ZM53.815,124.618a10.961,10.961,0,0,0-2.555.062,1.243,1.243,0,0,0-1.018,1.094l-.562,5.372a3.4,3.4,0,0,1-.249.83L41.367,132a1.25,1.25,0,0,1-.365-.859l-.581-5.524a1.24,1.24,0,0,0-.979-1.086,30.368,30.368,0,0,1-10.766-4.575,1.245,1.245,0,0,0-1.481.064l-4.484,3.642a1.538,1.538,0,0,1-.891.387l-5.616-5.623a1.618,1.618,0,0,1,.4-.9L20.3,113a1.243,1.243,0,0,0,.073-1.474A30.131,30.131,0,0,1,15.95,100.81a1.242,1.242,0,0,0-1.086-.988l-6.9-.6a1.2,1.2,0,0,1-.71-.249l-.009-8.123a.972.972,0,0,1,.727-.307l6.722-.593a1.245,1.245,0,0,0,1.088-1,30.122,30.122,0,0,1,4.394-10.877,1.242,1.242,0,0,0-.075-1.463l-3.532-4.353a1.586,1.586,0,0,1-.392-.916l5.636-5.659a1.415,1.415,0,0,1,.907.376L26.938,69.4a1.242,1.242,0,0,0,1.477.057A30.61,30.61,0,0,1,39.48,64.52a1.2,1.2,0,0,0,.981-1.055L41,59.212c.062-.615.341-1.489.547-1.489h7.578c.2,0,.486.838.551,1.477l.522,4.353a1.245,1.245,0,0,0,1.023,1.112,30.346,30.346,0,0,1,11.525,4.592,1.242,1.242,0,0,0,1.468-.072l3.756-3.044a1.759,1.759,0,0,1,.911-.387l5.665,5.608a1.3,1.3,0,0,1-.362.936l-2.852,3.646a1.245,1.245,0,0,0-.044,1.473,30.411,30.411,0,0,1,5.072,11.643,1.242,1.242,0,0,0,1.1,1.009l5.062.481c.659.067,1.756.356,1.756.571v6.626a16.141,16.141,0,0,0-2.334-2.254,19.89,19.89,0,0,0-12.389-4.343c-.148,0-.292.019-.439.023A24.014,24.014,0,1,0,50.882,117.69a19.774,19.774,0,0,0,3.056,5.53c.392.5.815.972,1.25,1.43-.426.014-.892-.006-1.372-.033ZM67.86,91.233a20.006,20.006,0,0,0-9.588,3.458A19.784,19.784,0,0,0,50.5,116.485,22.742,22.742,0,1,1,67.86,91.233Zm1.7,37.706A16.736,16.736,0,0,1,58,124.726a2.3,2.3,0,0,0-1.415-.428c-.008-.008-.01-.019-.018-.026a18.66,18.66,0,0,1-4.592-7.237.626.626,0,0,0-.01-.264.61.61,0,0,0-.146-.254A18.572,18.572,0,0,1,69.561,92.405a18.384,18.384,0,0,1,11.6,4.066,12.213,12.213,0,0,1,3,3.241c.008.014.024.019.033.031a1.233,1.233,0,0,0,.156,1.059,17.954,17.954,0,0,1-14.788,28.137Z" transform="translate(0 0)" fill="#fff"/>
    <path id="路径_155" data-name="路径 155" d="M702.2,632.892a7.3,7.3,0,1,0,7.3,7.3A7.305,7.305,0,0,0,702.2,632.892Zm0,11.893a4.6,4.6,0,1,1,4.594-4.6A4.6,4.6,0,0,1,702.2,644.785Z" transform="translate(-632.052 -529.164)" fill="#fff"/>
  </g>
</svg>
