<svg xmlns="http://www.w3.org/2000/svg" width="69.524" height="88" viewBox="0 0 69.524 88">
  <g id="组_3880" data-name="组 3880" transform="translate(-502.5 -389.309)">
    <g id="shengxian-roulei" transform="translate(513.339 437.593)">
      <path id="路径_142" data-name="路径 142" d="M4.394,153.378s1.3-8.564,9.249-10.208,17.2,5.275,21.512,5.96,9.591,6.234,8.564,12.811c-.959,6.577-.685,12.194-18.155,9.865-4.659-.959-11.235,2.946-15.894,2.6S-6.156,165.915,4.394,153.378Z" transform="translate(0 -142.919)" fill="#e2e2e2"/>
      <path id="路径_143" data-name="路径 143" d="M60.938,194.547s1.165-7.6,8.221-9.043,15.277,4.659,19.114,5.275,8.5,5.549,7.6,11.372-.617,10.824-16.168,8.769c-4.111-.891-10,2.6-14.113,2.329s-14.113-7.6-4.659-18.7Z" transform="translate(-54.557 -183.471)" fill="#faefea"/>
      <path id="路径_144" data-name="路径 144" d="M104.741,250.975s4.316-5.275,7.262-4.933,4.933.685,3.288,3.973-3.973,3.288-2.946,4.933c.959,1.644,1.644,2.946,2.946,3.288s4.933.685,4.933,1.644c0,1.987-2.946,4.59-2.946,5.618s-.685,3.631-1.987,3.974-12.194,2.192-14.181-4.385S104.741,250.975,104.741,250.975Z" transform="translate(-96.374 -241.612)" fill="#fff"/>
      <path id="路径_145" data-name="路径 145" d="M416.572,235.675s1.644-1.644,1.3-2.946-.959-2.329,0-2.329,6.919,1.3,6.577,1.644a16.189,16.189,0,0,1-3.288,1.644c-.959.343-3.562,3.973-4.59,1.987Zm-.343,4.933s-2.329-1.3-.343-2.329,3.288-.685,3.974-1.3,4.659-5.275,6.919-4.59c2.329.685,1.3,1.987,3.631,1.987s4.933,1.3,4.933,2.6.685,1.987-1.3,1.644a7.978,7.978,0,0,0-5.618.959c-1.3.959-3.631,3.973-4.933,3.973S416.229,240.608,416.229,240.608Z" transform="translate(-397.312 -226.654)" fill="#fff"/>
      <path id="路径_146" data-name="路径 146" d="M635.419,445.458s.959-2.6,2.672-2.946a60.774,60.774,0,0,0,6.577-1.644c.617-.343.959-.959,1.987-.343s2.946,1.987,2.672,3.973A17.588,17.588,0,0,1,647,450.39c-.685.959-3.974,3.974-5.618,4.248s-2.672-2.329-1.644-4.248C640.694,448.4,635.419,449.02,635.419,445.458Z" transform="translate(-608.212 -427.531)" fill="#fff"/>
      <path id="路径_147" data-name="路径 147" d="M506.143,606.832s1.3-2.946,1.987-2.329a7.045,7.045,0,0,0,2.672,1.644c1.028.343,2.329.959,2.329,2.6s.685,3.288-.343,2.946-1.987-1.644-3.288-1.3-4.659,1.987-4.933,1.3C504.156,611.08,506.143,606.832,506.143,606.832Z" transform="translate(-482.909 -584.658)" fill="#fff"/>
    </g>
    <g id="组_3879" data-name="组 3879" transform="translate(504 390.809)">
      <path id="pingzi-" d="M266.939,132.186H255.1v-5.794h3.5a6.483,6.483,0,1,0,0-12.966H223.919a6.483,6.483,0,0,0,0,12.966h3.5v5.794H215.581A7.592,7.592,0,0,0,208,139.769v51.074a7.592,7.592,0,0,0,7.583,7.583h51.358a7.592,7.592,0,0,0,7.583-7.583V139.769A7.592,7.592,0,0,0,266.939,132.186Zm-47.754-12.277a4.74,4.74,0,0,1,4.734-4.734H258.6a4.734,4.734,0,1,1,0,9.469H223.919A4.74,4.74,0,0,1,219.185,119.909Zm9.984,6.483h24.184v5.794H229.168Zm-13.587,7.542h51.358a5.841,5.841,0,0,1,5.835,5.835v27.6a32.93,32.93,0,0,1-9.278,4.253,27.519,27.519,0,0,1-21.886-2.63,58.9,58.9,0,0,0-22.965-7.467,47.873,47.873,0,0,0-8.9-.161v-21.6A5.841,5.841,0,0,1,215.581,133.934Zm51.358,62.743H215.581a5.841,5.841,0,0,1-5.835-5.835V163.122a46.3,46.3,0,0,1,8.78.149,57.148,57.148,0,0,1,22.214,7.238,29.514,29.514,0,0,0,12.63,3.929q1.037.075,2.083.075a31.375,31.375,0,0,0,8.583-1.226,35.121,35.121,0,0,0,8.738-3.829v21.385A5.841,5.841,0,0,1,266.939,196.677Z" transform="translate(-207.998 -113.426)" fill="#fff" stroke="#fff" stroke-width="3"/>
    </g>
  </g>
</svg>
