<svg xmlns="http://www.w3.org/2000/svg" width="85.193" height="85" viewBox="0 0 85.193 85">
  <defs>
    <style>
      .cls-1 {
        fill: #fff;
      }
    </style>
  </defs>
  <path id="fenzi-2" class="cls-1" d="M63.943,39.023a20.509,20.509,0,0,0-13.716,5.216L40.375,27.045a14.973,14.973,0,0,0,5.8-10.239l11.011.386a9.766,9.766,0,0,0,9.659,8.114A9.852,9.852,0,1,0,57.182,13.33l-11.2-.386A14.86,14.86,0,0,0,31.1,0a15.068,15.068,0,0,0,0,30.136,14.115,14.115,0,0,0,5.8-1.159L47.33,47.136A20.955,20.955,0,0,0,42.886,60.08a28.821,28.821,0,0,0,.386,4.057L29.364,67.227A14.728,14.728,0,0,0,14.875,55.443a14.779,14.779,0,1,0,0,29.557A14.969,14.969,0,0,0,29.75,71.091l14.875-3.284A21.058,21.058,0,0,0,85.193,60.08a21.4,21.4,0,0,0-21.25-21.057ZM67.034,9.466a5.989,5.989,0,1,1-5.989,5.989A5.782,5.782,0,0,1,67.034,9.466ZM19.9,15.068a11.2,11.2,0,1,1,11.2,11.2,11.213,11.213,0,0,1-11.2-11.2ZM14.875,81.136a11.011,11.011,0,0,1,0-22.023,11.011,11.011,0,0,1,0,22.023Zm49.068-3.864A17.193,17.193,0,1,1,81.136,60.08,17.231,17.231,0,0,1,63.943,77.273Z" transform="translate(0 0)"/>
</svg>
