<svg xmlns="http://www.w3.org/2000/svg" width="65.571" height="85" viewBox="0 0 65.571 85">
  <g id="yinanbingli" transform="translate(-215.197 -98.528)">
    <path id="路径_122" data-name="路径 122" d="M276.572,110.1H263.72v-5.77h-8.385a7.56,7.56,0,0,0-14.7,0h-8.385v5.77H218.87c-2.1,0-3.672,2.1-3.672,4.2v65.04a4.513,4.513,0,0,0,4.2,4.2h57.178a4.513,4.513,0,0,0,4.2-4.2v-65.04A4.513,4.513,0,0,0,276.572,110.1Zm-28.589-8.285a4.28,4.28,0,1,1-4.28,4.28A4.285,4.285,0,0,1,247.983,101.81Zm-12.065,6.712h4.907a7.559,7.559,0,0,0,14.316,0h4.907v7.868h-24.13v-7.868Zm40.13,67.138a3.385,3.385,0,0,1-3.147,3.147H222.542a3.385,3.385,0,0,1-3.147-3.147v-57.7a3.385,3.385,0,0,1,3.147-3.147h9.7v5.246H263.72v-5.77h9.18a3.385,3.385,0,0,1,3.147,3.147Z" transform="translate(0)" fill="#fff"/>
    <path id="路径_123" data-name="路径 123" d="M411.584,347.835h7.354v-7.7h7.7v-7.354h-7.7v-7.7h-7.354v7.7h-7.7v7.354h7.7Z" transform="translate(-167.278 -201.011)" fill="#fff"/>
    <path id="路径_124" data-name="路径 124" d="M394.966,594.013h-26.8a2.175,2.175,0,0,0-2.022,2.022v.506a2.175,2.175,0,0,0,2.022,2.022h26.291a2.58,2.58,0,0,0,2.528-2.022v-.506A2.175,2.175,0,0,0,394.966,594.013Z" transform="translate(-133.585 -440.268)" fill="#fff"/>
    <path id="路径_125" data-name="路径 125" d="M394.966,660.053h-26.8a2.175,2.175,0,0,0-2.022,2.022v.505a2.175,2.175,0,0,0,2.022,2.022h26.291a2.58,2.58,0,0,0,2.528-2.022v-.505A2.175,2.175,0,0,0,394.966,660.053Z" transform="translate(-133.585 -498.949)" fill="#fff"/>
    <path id="路径_126" data-name="路径 126" d="M394.966,730.81h-26.8a2.175,2.175,0,0,0-2.022,2.022v.506c0,1.011,1.011,1.517,2.022,1.517h26.291a2.78,2.78,0,0,0,2.528-1.517v-.506A2.175,2.175,0,0,0,394.966,730.81Z" transform="translate(-133.585 -561.439)" fill="#fff"/>
  </g>
</svg>
