<svg xmlns="http://www.w3.org/2000/svg" width="93" height="85" viewBox="0 0 93 85">
  <g id="组_5018" data-name="组 5018" transform="translate(-570 -472)">
    <path id="mianyizuhua-2" d="M62.428,31.152a7.5,7.5,0,0,0-6.772,4.334L45.362,31.829a4.608,4.608,0,0,0,.135-1.354,6.456,6.456,0,0,0-.542-2.709l3.792-3.792a5.827,5.827,0,0,0,4.2,1.625A6.095,6.095,0,1,0,46.852,19.5a5.615,5.615,0,0,0,.406,2.167l-3.792,3.657a7.268,7.268,0,0,0-5.418-2.438,2.3,2.3,0,0,0-.948.135L34.933,11.648A6.267,6.267,0,0,0,38.725,5.96a6.1,6.1,0,0,0-12.19.135,6.183,6.183,0,0,0,5.689,6.095l2.167,11.784a7.279,7.279,0,0,0-3.522,4.47H25.045a6.813,6.813,0,0,0-6.637-5.418,6.772,6.772,0,0,0,0,13.544,6.813,6.813,0,0,0,6.637-5.418h5.689a7.977,7.977,0,0,0,2.032,4.605L28.3,40.091a9.089,9.089,0,0,0-3.792-.813A10.158,10.158,0,1,0,34.662,49.437,10.053,10.053,0,0,0,31,41.717l4.334-4.334a6.064,6.064,0,0,0,2.709.542A7.7,7.7,0,0,0,44.414,34.4l10.7,3.792v.542a7.449,7.449,0,1,0,14.9,0A7.751,7.751,0,0,0,62.428,31.152Zm-9.481-14.9a3.386,3.386,0,1,1-3.386,3.386,3.353,3.353,0,0,1,3.386-3.386ZM18.409,33.861A4.063,4.063,0,1,1,22.472,29.8a3.991,3.991,0,0,1-4.063,4.063ZM31.953,49.437A7.449,7.449,0,1,1,24.5,41.988,7.516,7.516,0,0,1,31.953,49.437ZM32.63,9.481a3.353,3.353,0,0,1-3.386-3.386,3.386,3.386,0,0,1,6.772,0A3.353,3.353,0,0,1,32.63,9.481Zm5.418,25.734a4.741,4.741,0,1,1,4.741-4.741,4.8,4.8,0,0,1-4.741,4.741Zm24.38,8.127A4.741,4.741,0,1,1,67.168,38.6,4.8,4.8,0,0,1,62.428,43.342Z" transform="translate(574.051 483.404)" fill="#fff"/>
    <g id="椭圆_91" data-name="椭圆 91" transform="translate(570 472)" fill="none" stroke="#fff" stroke-width="4">
      <circle cx="42.5" cy="42.5" r="42.5" stroke="none"/>
      <circle cx="42.5" cy="42.5" r="40.5" fill="none"/>
    </g>
    <g id="组_5000" data-name="组 5000" transform="translate(-172 -353)">
      <g id="椭圆_90" data-name="椭圆 90" transform="translate(797 872)" fill="#fff" stroke="#fff" stroke-width="3">
        <circle cx="19" cy="19" r="19" stroke="none"/>
        <circle cx="19" cy="19" r="17.5" fill="none"/>
      </g>
      <path id="_25guanli" data-name="25guanli" d="M28.852,12.761l-3.033-1.012q-.09-.233-.194-.465l1.431-2.86a.989.989,0,0,0-.186-1.142l-2.8-2.8A.988.988,0,0,0,22.93,4.3l-2.861,1.43q-.23-.1-.464-.193L18.594,2.5a.988.988,0,0,0-.938-.676H13.7a.988.988,0,0,0-.938.676L11.748,5.535q-.234.091-.464.193L8.423,4.3a.986.986,0,0,0-1.142.186l-2.8,2.8A.989.989,0,0,0,4.3,8.424l1.43,2.861q-.1.229-.193.464L2.5,12.761a.988.988,0,0,0-.676.938v3.958a.988.988,0,0,0,.676.938l3.033,1.012q.091.235.194.465L4.3,22.931a.989.989,0,0,0,.185,1.142l2.8,2.8a.987.987,0,0,0,1.142.186l2.861-1.43q.23.1.464.193l1.012,3.033a.988.988,0,0,0,.938.676h3.958a.99.99,0,0,0,.939-.676l1.01-3.032q.234-.092.465-.194l2.861,1.43a.988.988,0,0,0,1.142-.186l2.8-2.8a.989.989,0,0,0,.186-1.142l-1.43-2.861q.1-.23.193-.464l3.033-1.012a.988.988,0,0,0,.676-.938V13.7A.988.988,0,0,0,28.852,12.761Zm-1.3,4.183-2.81.937a.988.988,0,0,0-.625.624,8.844,8.844,0,0,1-.474,1.138.989.989,0,0,0,0,.883l1.326,2.652-1.789,1.789-2.652-1.326a.99.99,0,0,0-.883,0,8.9,8.9,0,0,1-1.138.474.99.99,0,0,0-.626.625l-.935,2.81H14.411l-.937-2.81a.988.988,0,0,0-.624-.625,8.845,8.845,0,0,1-1.138-.474.989.989,0,0,0-.883,0L8.176,24.968,6.387,23.178l1.327-2.652a.991.991,0,0,0,0-.885A8.868,8.868,0,0,1,7.239,18.5a.988.988,0,0,0-.625-.624L3.8,16.943V14.412l2.81-.937a.988.988,0,0,0,.625-.624,8.8,8.8,0,0,1,.473-1.134.99.99,0,0,0,0-.886L6.387,8.177,8.176,6.387l2.653,1.327a.986.986,0,0,0,.886,0A8.791,8.791,0,0,1,12.85,7.24a.988.988,0,0,0,.624-.625l.937-2.81h2.531l.937,2.81a.988.988,0,0,0,.624.625,8.844,8.844,0,0,1,1.138.474,1,1,0,0,0,.883,0l2.652-1.326,1.789,1.789L23.64,10.829a.991.991,0,0,0,0,.885,8.864,8.864,0,0,1,.474,1.136.988.988,0,0,0,.625.624l2.81.937v2.531ZM15.677,10.731a4.947,4.947,0,1,0,4.947,4.947,4.948,4.948,0,0,0-4.947-4.947Zm0,7.915a2.968,2.968,0,1,1,2.968-2.968,2.971,2.971,0,0,1-2.968,2.968Z" transform="translate(800.175 875.174)" fill="#dc6bf8"/>
    </g>
  </g>
</svg>
