<svg xmlns="http://www.w3.org/2000/svg" width="125.456" height="124.539" viewBox="0 0 125.456 124.539">
  <path id="qiepian" d="M123.647,15.128,108.309,1.891A8.069,8.069,0,0,0,103.056,0h-.21a7.363,7.363,0,0,0-5.883,2.942L43.385,65.975a7.686,7.686,0,0,0-1.891,5.883,8.549,8.549,0,0,0,2.731,5.463L59.563,90.557a8.069,8.069,0,0,0,5.253,1.891h.21a7.363,7.363,0,0,0,5.883-2.942l53.578-63.033a8.014,8.014,0,0,0-.84-11.346ZM67.758,86.775a3.062,3.062,0,0,1-2.731,1.471,4.038,4.038,0,0,1-2.521-.84L47.167,74.169a3.76,3.76,0,0,1-.42-5.463L86.037,22.062l21.221,18.28Zm53.578-63.033L110.2,36.979,88.769,18.7,99.9,5.463A4.148,4.148,0,0,1,102.846,4.2a4.038,4.038,0,0,1,2.521.84L120.705,18.28a3.626,3.626,0,0,1,.63,5.463Zm-46.855,20.8A12.607,12.607,0,1,0,87.088,57.15,12.644,12.644,0,0,0,74.481,44.543Zm0,21.011a8.4,8.4,0,1,1,8.4-8.4,8.429,8.429,0,0,1-8.4,8.4Z" transform="translate(44.173 -31.756) rotate(50)" fill="#fff"/>
</svg>
