<svg xmlns="http://www.w3.org/2000/svg" width="83.261" height="85" viewBox="0 0 83.261 85">
  <path id="mianyizuhua-2" d="M84.08,44.432a10.694,10.694,0,0,0-9.659,6.182L59.739,45.4a6.572,6.572,0,0,0,.193-1.932,9.209,9.209,0,0,0-.773-3.864l5.409-5.409a8.311,8.311,0,0,0,5.989,2.318,8.693,8.693,0,1,0-8.693-8.693,8.008,8.008,0,0,0,.58,3.091l-5.409,5.216a10.367,10.367,0,0,0-7.727-3.477,3.288,3.288,0,0,0-1.352.193L44.864,16.614A8.938,8.938,0,0,0,50.273,8.5a8.694,8.694,0,0,0-17.386.193A8.819,8.819,0,0,0,41,17.386l3.091,16.807a10.381,10.381,0,0,0-5.023,6.375H30.761A9.717,9.717,0,0,0,21.3,32.841a9.659,9.659,0,0,0,0,19.318,9.717,9.717,0,0,0,9.466-7.727h8.114A11.377,11.377,0,0,0,41.773,51L35.4,57.182a12.963,12.963,0,0,0-5.409-1.159A14.489,14.489,0,1,0,44.477,70.511,14.339,14.339,0,0,0,39.261,59.5l6.182-6.182a8.649,8.649,0,0,0,3.864.773,10.987,10.987,0,0,0,9.08-5.023l15.261,5.409v.773a10.625,10.625,0,1,0,21.25,0A11.055,11.055,0,0,0,84.08,44.432ZM70.557,23.182a4.83,4.83,0,1,1-4.83,4.83,4.783,4.783,0,0,1,4.83-4.83ZM21.3,48.3a5.8,5.8,0,1,1,5.8-5.8,5.692,5.692,0,0,1-5.8,5.8ZM40.614,70.511A10.625,10.625,0,1,1,29.989,59.886,10.719,10.719,0,0,1,40.614,70.511Zm.966-56.989a4.783,4.783,0,0,1-4.83-4.83,4.83,4.83,0,0,1,9.659,0A4.783,4.783,0,0,1,41.58,13.523Zm7.727,36.7a6.761,6.761,0,1,1,6.761-6.761,6.845,6.845,0,0,1-6.761,6.761ZM84.08,61.818a6.761,6.761,0,1,1,6.761-6.761A6.845,6.845,0,0,1,84.08,61.818Z" transform="translate(-11.637)" fill="#fff"/>
</svg>
