<svg xmlns="http://www.w3.org/2000/svg" width="84.904" height="85" viewBox="0 0 84.904 85">
  <g id="wj-jzbg" transform="translate(-64.5 -64)">
    <path id="路径_130" data-name="路径 130" d="M266.832,275.475a6.074,6.074,0,1,0-9.121,5.233,7.567,7.567,0,0,1-15.024.407,12.073,12.073,0,0,0,8.959-11.648v-6.86a6.078,6.078,0,1,0-6.074-.114v6.974a6.027,6.027,0,0,1-12.053,0V262.55a6.074,6.074,0,1,0-6.074,0v6.917a12.078,12.078,0,0,0,9.159,11.705,13.619,13.619,0,0,0,27.172-.445A6.043,6.043,0,0,0,266.832,275.475Zm-30.19-48.447A3.027,3.027,0,0,0,233.615,224H197.228a3.028,3.028,0,0,0,0,6.056h36.387A3.027,3.027,0,0,0,236.642,227.028Zm0,18.168a3.027,3.027,0,0,0-3.028-3.028H197.228a3.028,3.028,0,0,0,0,6.056h36.387A3.027,3.027,0,0,0,236.642,245.2Zm-39.415,15.14a3.028,3.028,0,0,0,0,6.056h18.194a3.028,3.028,0,0,0,0-6.056Z" transform="translate(-117.427 -144.643)" fill="#fff"/>
    <path id="路径_131" data-name="路径 131" d="M103.987,136.871H73.556a3.027,3.027,0,0,1-3.019-3.036V73.109a3.027,3.027,0,0,1,3.019-3.036h48.6a3.027,3.027,0,0,1,3.018,3.036V97.4a3.019,3.019,0,1,0,6.037,0V70.073A6.06,6.06,0,0,0,125.173,64H70.537A6.06,6.06,0,0,0,64.5,70.073v66.8a6.06,6.06,0,0,0,6.037,6.073h33.45a3.036,3.036,0,0,0,0-6.073Z" transform="translate(0)" fill="#fff"/>
  </g>
</svg>
