<svg xmlns="http://www.w3.org/2000/svg" width="85" height="78.932" viewBox="0 0 85 78.932">
  <path id="xiaoxizhongxin" d="M98.026,84.077H40.347a6.074,6.074,0,0,0-6.071,6.071v36.426a6.072,6.072,0,0,0,6.071,6.071h6.072v15.184L61.6,132.645H98.026a6.068,6.068,0,0,0,6.071-6.071V90.148a6.07,6.07,0,0,0-6.071-6.071Zm0,42.5H59.083l-6.593,6.593v-6.593H40.347V90.148H98.026v36.426ZM54.008,112.919a4.555,4.555,0,1,0-4.554-4.559A4.556,4.556,0,0,0,54.008,112.919Zm15.179,0a4.555,4.555,0,1,0-4.554-4.559A4.556,4.556,0,0,0,69.187,112.919Zm15.178,0a4.555,4.555,0,1,0-4.553-4.559A4.56,4.56,0,0,0,84.365,112.919ZM113.2,68.9H55.526a6.074,6.074,0,0,0-6.072,6.071v6.072h6.072V74.969H113.2V111.4h-6.072v6.071H113.2a6.068,6.068,0,0,0,6.071-6.071V74.969A6.07,6.07,0,0,0,113.2,68.9ZM113.2,68.9Z" transform="translate(-34.276 -68.898)" fill="#fff"/>
</svg>
