<svg xmlns="http://www.w3.org/2000/svg" width="80.28" height="85" viewBox="0 0 80.28 85">
  <g id="chaxun" transform="translate(-26.316)">
    <path id="路径_282" data-name="路径 282" d="M231.854,193.024H276.4v5.52H231.854Zm-.149,11.094h44.546v5.52H231.706Z" transform="translate(-187.675 -177.146)" fill="#fff"/>
    <path id="路径_283" data-name="路径 283" d="M32.05,5.313h68.812v42.5H106.6V5.313A5.537,5.537,0,0,0,100.862,0H32.05a5.536,5.536,0,0,0-5.733,5.313V79.687A5.536,5.536,0,0,0,32.05,85H72.191V79.687H32.05Z" fill="#fff"/>
    <path id="路径_284" data-name="路径 284" d="M231.825,460.7v5.52h14.49a18.025,18.025,0,0,1,.865-5.52Zm24.359-11.039H231.706v5.52h18.111A20.413,20.413,0,0,1,256.184,449.664Zm40.359,44.422-12.371-12.505a19.5,19.5,0,0,0,4.564-12.594,18.889,18.889,0,1,0-18.884,19.319,18.507,18.507,0,0,0,10.244-3.087l12.631,12.77a2.656,2.656,0,0,0,3.815,0A2.8,2.8,0,0,0,296.543,494.086Zm-41.158-25.1a14.362,14.362,0,1,1,14.351,13.8A14.083,14.083,0,0,1,255.385,468.987Z" transform="translate(-190.805 -414.197)" fill="#fff"/>
  </g>
</svg>
