<svg xmlns="http://www.w3.org/2000/svg" width="90" height="89" viewBox="0 0 90 89">
  <g id="组_5019" data-name="组 5019" transform="translate(-1266 -467)">
    <g id="组_5015" data-name="组 5015" transform="translate(866 -354)">
      <g id="huaxueshiji-" transform="translate(340 759.3)">
        <path id="路径_194" data-name="路径 194" d="M249.986,147.963H238.481a.681.681,0,0,1,0-1.363h11.514a.683.683,0,0,1,.681.681A.7.7,0,0,1,249.986,147.963Zm16.93,0H255.4a.681.681,0,0,1,0-1.363h11.514a.681.681,0,1,1,0,1.363Zm16.887,0H272.3a.681.681,0,0,1,0-1.363H283.8a.681.681,0,0,1,0,1.363Zm-1.558,0V198.1a4.2,4.2,0,0,1-8.4,0V147.963h-1.363V198.1a5.552,5.552,0,0,0,11.1,0V147.963Z" transform="translate(-158.999 -70.351)" fill="#fff"/>
        <path id="路径_195" data-name="路径 195" d="M661.2,219v45.331a4.2,4.2,0,0,0,8.4,0V219Z" transform="translate(-546.342 -136.586)" fill="#fff"/>
        <path id="路径_196" data-name="路径 196" d="M456.259,162.6v50.134a4.2,4.2,0,0,1-8.4,0V162.6H446.5v50.134a5.552,5.552,0,1,0,11.1,0V162.6Z" transform="translate(-349.926 -84.989)" fill="#fff"/>
        <path id="路径_197" data-name="路径 197" d="M462.6,420v28.214a4.2,4.2,0,0,0,8.4,0V420Z" transform="translate(-364.655 -320.468)" fill="#fff"/>
        <path id="路径_198" data-name="路径 198" d="M257.759,162.6v50.134a4.2,4.2,0,0,1-8.4,0V162.6H248v50.134a5.552,5.552,0,1,0,11.1,0V162.6Z" transform="translate(-168.331 -84.989)" fill="#fff"/>
        <path id="路径_199" data-name="路径 199" d="M264.1,332.5v35.665a4.2,4.2,0,0,0,8.4,0V332.5Z" transform="translate(-183.059 -240.42)" fill="#fff"/>
        <path id="路径_200" data-name="路径 200" d="M137.885,289.415a1.065,1.065,0,0,1,1.064,1.064v7.451A1.065,1.065,0,0,1,137.885,299H66.436a1.065,1.065,0,0,1-1.064-1.065v-7.451a1.065,1.065,0,0,1,1.064-1.064h71.449m0-1.363H66.436A2.433,2.433,0,0,0,64,290.479v7.451a2.426,2.426,0,0,0,2.427,2.427h71.458a2.426,2.426,0,0,0,2.427-2.427v-7.451A2.421,2.421,0,0,0,137.885,288.052Zm1.073-47.69v1.7h-73.6v-1.7h73.6M140.32,239H64v4.428h76.32Z" transform="translate(0 -154.882)" fill="none"/>
        <path id="路径_201" data-name="路径 201" d="M157.066,71.08v62.09h-1.7V71.08h1.7m1.363-1.363H154v64.815h4.428Zm55.158,1.346v62.09h-1.7V71.063h1.7m1.363-1.363h-4.428v64.815h4.428Z" transform="translate(-82.336)" fill="none"/>
        <path id="路径_210" data-name="路径 210" d="M279.75,658.15m-1.15,0a1.15,1.15,0,1,0,1.15-1.15A1.15,1.15,0,0,0,278.6,658.15Z" transform="translate(-196.325 -537.286)" fill="#fff"/>
        <path id="路径_211" data-name="路径 211" d="M321.95,715.55m-1.15,0a1.15,1.15,0,1,0,1.15-1.15A1.15,1.15,0,0,0,320.8,715.55Z" transform="translate(-234.931 -589.797)" fill="#fff"/>
        <path id="路径_212" data-name="路径 212" d="M279.75,751.55m-1.15,0a1.15,1.15,0,1,0,1.15-1.15A1.15,1.15,0,0,0,278.6,751.55Z" transform="translate(-196.325 -622.732)" fill="#fff"/>
        <path id="路径_213" data-name="路径 213" d="M325.75,372.85m-1.15,0a1.15,1.15,0,1,0,1.15-1.15A1.15,1.15,0,0,0,324.6,372.85Z" transform="translate(-238.407 -276.282)" fill="#fff"/>
      </g>
      <g id="椭圆_76" data-name="椭圆 76" transform="translate(400 821)" fill="none" stroke="#fff" stroke-width="4">
        <circle cx="42.5" cy="42.5" r="42.5" stroke="none"/>
        <circle cx="42.5" cy="42.5" r="40.5" fill="none"/>
      </g>
    </g>
    <g id="组_5016" data-name="组 5016" transform="translate(521 -354)">
      <g id="椭圆_90" data-name="椭圆 90" transform="translate(797 872)" fill="#fff" stroke="#fff" stroke-width="3">
        <circle cx="19" cy="19" r="19" stroke="none"/>
        <circle cx="19" cy="19" r="17.5" fill="none"/>
      </g>
      <path id="_25guanli" data-name="25guanli" d="M28.852,12.761l-3.033-1.012q-.09-.233-.194-.465l1.431-2.86a.989.989,0,0,0-.186-1.142l-2.8-2.8A.988.988,0,0,0,22.93,4.3l-2.861,1.43q-.23-.1-.464-.193L18.594,2.5a.988.988,0,0,0-.938-.676H13.7a.988.988,0,0,0-.938.676L11.748,5.535q-.234.091-.464.193L8.423,4.3a.986.986,0,0,0-1.142.186l-2.8,2.8A.989.989,0,0,0,4.3,8.424l1.43,2.861q-.1.229-.193.464L2.5,12.761a.988.988,0,0,0-.676.938v3.958a.988.988,0,0,0,.676.938l3.033,1.012q.091.235.194.465L4.3,22.931a.989.989,0,0,0,.185,1.142l2.8,2.8a.987.987,0,0,0,1.142.186l2.861-1.43q.23.1.464.193l1.012,3.033a.988.988,0,0,0,.938.676h3.958a.99.99,0,0,0,.939-.676l1.01-3.032q.234-.092.465-.194l2.861,1.43a.988.988,0,0,0,1.142-.186l2.8-2.8a.989.989,0,0,0,.186-1.142l-1.43-2.861q.1-.23.193-.464l3.033-1.012a.988.988,0,0,0,.676-.938V13.7A.988.988,0,0,0,28.852,12.761Zm-1.3,4.183-2.81.937a.988.988,0,0,0-.625.624,8.844,8.844,0,0,1-.474,1.138.989.989,0,0,0,0,.883l1.326,2.652-1.789,1.789-2.652-1.326a.99.99,0,0,0-.883,0,8.9,8.9,0,0,1-1.138.474.99.99,0,0,0-.626.625l-.935,2.81H14.411l-.937-2.81a.988.988,0,0,0-.624-.625,8.845,8.845,0,0,1-1.138-.474.989.989,0,0,0-.883,0L8.176,24.968,6.387,23.178l1.327-2.652a.991.991,0,0,0,0-.885A8.868,8.868,0,0,1,7.239,18.5a.988.988,0,0,0-.625-.624L3.8,16.943V14.412l2.81-.937a.988.988,0,0,0,.625-.624,8.8,8.8,0,0,1,.473-1.134.99.99,0,0,0,0-.886L6.387,8.177,8.176,6.387l2.653,1.327a.986.986,0,0,0,.886,0A8.791,8.791,0,0,1,12.85,7.24a.988.988,0,0,0,.624-.625l.937-2.81h2.531l.937,2.81a.988.988,0,0,0,.624.625,8.844,8.844,0,0,1,1.138.474,1,1,0,0,0,.883,0l2.652-1.326,1.789,1.789L23.64,10.829a.991.991,0,0,0,0,.885,8.864,8.864,0,0,1,.474,1.136.988.988,0,0,0,.625.624l2.81.937v2.531ZM15.677,10.731a4.947,4.947,0,1,0,4.947,4.947,4.948,4.948,0,0,0-4.947-4.947Zm0,7.915a2.968,2.968,0,1,1,2.968-2.968,2.971,2.971,0,0,1-2.968,2.968Z" transform="translate(800.175 875.174)" fill="#64a5f7"/>
    </g>
  </g>
</svg>
