<svg xmlns="http://www.w3.org/2000/svg" width="85" height="83.68" viewBox="0 0 85 83.68">
  <g id="组_5712" data-name="组 5712" transform="translate(-919.988 -466.32)">
    <path id="路径_286" data-name="路径 286" d="M800.625,190.422A2.926,2.926,0,0,1,797.7,187.5V175.025a2.925,2.925,0,0,1,5.85,0V187.5A2.926,2.926,0,0,1,800.625,190.422Z" transform="translate(198.997 294.365)" fill="#fff"/>
    <g id="组_5711" data-name="组 5711">
      <path id="路径_285" data-name="路径 285" d="M183.378,224.143a3.112,3.112,0,0,1-1.983-5.517l25.292-21.884,13.68,12.874,34.467-29.364a3.107,3.107,0,1,1,4.04,4.722l-38.707,32.992L206.4,205.018l-21.052,18.417A3.094,3.094,0,0,1,183.378,224.143Z" transform="translate(741.734 288.147)" fill="#fff"/>
      <path id="路径_287" data-name="路径 287" d="M377.2,177.435H364.939a3.128,3.128,0,0,1,0-6.235H377.2a3.128,3.128,0,0,1,0,6.235Z" transform="translate(621.647 295.12)" fill="#fff"/>
      <rect id="矩形_1648" data-name="矩形 1648" width="10" height="29" transform="translate(919.988 521)" fill="#fff"/>
      <rect id="矩形_1649" data-name="矩形 1649" width="10" height="40" transform="translate(938.988 510)" fill="#fff"/>
      <rect id="矩形_1650" data-name="矩形 1650" width="10" height="35" transform="translate(957.988 515)" fill="#fff"/>
      <rect id="矩形_1651" data-name="矩形 1651" width="10" height="46" transform="translate(975.988 504)" fill="#fff"/>
      <rect id="矩形_1652" data-name="矩形 1652" width="10" height="53" transform="translate(994.988 497)" fill="#fff"/>
    </g>
  </g>
</svg>
