<svg xmlns="http://www.w3.org/2000/svg" width="81.722" height="85.5" viewBox="0 0 81.722 85.5">
  <path id="yiyongcailiao_haocai" d="M103.978,41.556H79.422V33.371c0-8.3-4.479-14.1-11.333-14.992V15.111h3.778V0H30.311V15.111h3.778v3.268c-6.855.9-11.333,6.692-11.333,14.992V85H79.422V77.444h24.556V41.556ZM34.089,3.778h34v7.556h-34ZM26.533,33.371c0-5.227,2.474-10.7,9.444-10.7h1.889V15.111H64.311v7.556H66.2c6.97,0,9.444,5.478,9.444,10.7V34H26.533Zm0,4.407H75.644v3.778H62.422V69.889H26.533ZM75.644,81.222H26.533V73.667H62.422v3.778H75.644ZM100.2,73.667h-34V45.333h34ZM85.089,51H81.311v5.667h3.778Zm7.556,0H88.867v5.667h3.778ZM85.089,62.333H81.311V68h3.778ZM77.533,51H73.756v5.667h3.778Zm0,11.333H73.756V68h3.778Zm15.111,0H88.867V68h3.778ZM60.533,51H52.978V43.444H49.2V51H41.644v3.778H49.2v7.556h3.778V54.778h7.556Z" transform="translate(-22.505 0.25)" fill="#fff" stroke="#fff" stroke-width="0.5"/>
</svg>
