<svg xmlns="http://www.w3.org/2000/svg" width="85" height="74.58" viewBox="0 0 85 74.58">
  <g id="组_5713" data-name="组 5713" transform="translate(-493 -867.771)">
    <g id="zichanguanli" transform="translate(492.488 804.571)">
      <path id="路径_273" data-name="路径 273" d="M78.264,63.2H7.76A7.4,7.4,0,0,0,.512,70.741v46.552a7.971,7.971,0,0,0,7.727,7.729h30.91v7.727H19.832v5.031H66.192v-5.031H46.881v-7.727h30.91a7.968,7.968,0,0,0,7.721-7.729V70.741A7.393,7.393,0,0,0,78.264,63.2Zm2.22,56.794-23.717-.207.013-.037-2.406.013-1.228-.013.005.013-47.608.231V68.231H80.484v51.764Z" transform="translate(0)" fill="#fff"/>
    </g>
    <g id="xitongguanli-2" transform="translate(493.891 869.76)">
      <path id="路径_295" data-name="路径 295" d="M295.253,122.464a4.552,4.552,0,1,0,4.552,4.552A4.479,4.479,0,0,0,295.253,122.464Zm0,7.323a2.771,2.771,0,1,1,2.771-2.771A2.831,2.831,0,0,1,295.253,129.787Zm40.969-8.115-1.583-.2v-.4l1.188-.99c.2-.4.4-.594.594-.99a1.309,1.309,0,0,0-.2-1.187l-.99-1.781c-.594-.594-1.385-.99-1.979-.594l-1.583.594-.2-.2.594-1.583a.9.9,0,0,0,0-.99,4.328,4.328,0,0,0-.594-.99l-1.781-.99a1.487,1.487,0,0,0-1.979.4l-.99,1.188h-.4l-.4-1.583a1.487,1.487,0,0,0-1.385-1.385h-2.177a1.353,1.353,0,0,0-1.385,1.385l-.2,1.583h-.4l-.99-1.187a1.487,1.487,0,0,0-1.979-.4l-1.781.99a1.088,1.088,0,0,0-.594.99v.99l.594,1.583-.2.2-1.781-.594h-.99a4.326,4.326,0,0,0-.99.594l-.99,1.781a2.51,2.51,0,0,0-.2,1.188c.2.4.4.792.594.792l1.188,1.188v.4l-1.583.4a1.487,1.487,0,0,0-1.385,1.385v2.177a1.353,1.353,0,0,0,1.385,1.385l1.583.2v.4l-1.187.99a2.733,2.733,0,0,0-.594.792,1.309,1.309,0,0,0,.2,1.188l.99,1.781c.4.792,1.385.99,1.781.594l1.583-.594.2.2-.594,1.583a.9.9,0,0,0,0,.99,4.327,4.327,0,0,0,.594.99l1.781.99a2.511,2.511,0,0,0,1.188.2c.4-.2.792-.4.792-.594l.99-1.187h.4l.4,1.583a1.487,1.487,0,0,0,1.385,1.385h2.177a1.353,1.353,0,0,0,1.385-1.385l.2-1.583h.4l.99,1.188a2.732,2.732,0,0,0,.792.594,1.309,1.309,0,0,0,1.187-.2l1.781-.99c.792-.4.99-1.385.594-1.781l-.594-1.583.2-.2,1.583.594a1.6,1.6,0,0,0,1.979-.594l.99-1.781a1.487,1.487,0,0,0-.4-1.979l-1.187-.99v-.4l1.583-.4a1.487,1.487,0,0,0,1.385-1.385v-2.177A1.044,1.044,0,0,0,336.222,121.672Zm-.792,2.969-2.573.594-.2.792a5.035,5.035,0,0,1-.4,1.385l-.2.792,1.979,1.583-.4.792-1.583-.594-.792-.594-.792.792c-.4.4-.594.792-.99.99l-.792.594.594.792.594,1.583-.792.4-1.187-1.188-.4-.792-.99.4a5.033,5.033,0,0,1-1.385.4l-.792.2-.4,2.573h-.99l-.594-2.573-.594-.2a5.034,5.034,0,0,1-1.385-.4l-.99-.4-.4.792-.99,1.188-.792-.4.594-1.583.594-.792-.99-.4c-.4-.4-.792-.594-.99-.99l-.594-.99-.792.4-1.583.594-.4-.792,1.188-1.187.792-.594-.2-.792a5.034,5.034,0,0,1-.4-1.385l-.2-.792-2.573-.4v-.99l2.573-.594.2-.792a5.034,5.034,0,0,1,.4-1.385l.4-.99h-.99l-1.187-.99.4-.792,1.583.594.792.4.594-.792c.4-.4.594-.792.99-.99l.792-.594-.594-.792-.594-1.583.792-.594L319,114.745l.4.792.99-.4a5.034,5.034,0,0,1,1.385-.4l.792-.2.4-2.573h.99l.594,2.573.792.2a5.034,5.034,0,0,1,1.385.4l.792.2,1.583-1.979.792.4-.594,1.583-.594.792.792.594c.4.4.792.594.99.99l.792.792.792-.2,1.583-.594.4.792-1.187,1.188-.792.4.4.99a5.034,5.034,0,0,1,.4,1.385l.2.792,2.573.4v.99Z" transform="translate(-268.732 -101.682)" fill="#fff"/>
      <path id="路径_296" data-name="路径 296" d="M233.978,181.649a5.344,5.344,0,1,0,5.344,5.344A5.322,5.322,0,0,0,233.978,181.649Zm0,8.708a3.167,3.167,0,1,1,3.167-3.167A3.255,3.255,0,0,1,233.978,190.358Zm-10.094,14.448-.792-.2v-.2l.594-.594c.2-.2.4-.2.4-.594v-.594l-.594-.99c-.2-.2-.2-.4-.594-.4H222.3l-.792.4-.2-.2.2-.792a.371.371,0,0,0,0-.594c0-.2-.2-.4-.4-.594l-.99-.594c-.4-.2-.99,0-.99.2l-.594.792h-.2l-.2-.792a.851.851,0,0,0-.792-.792h-1.187a.851.851,0,0,0-.792.792l-.2.99h-.2l-.594-.594a.952.952,0,0,0-1.187-.4l-.2.2v-.792l-.594-1.385.2-.2,1.188.4a1.289,1.289,0,0,0,1.781-.4l.99-1.583a1.037,1.037,0,0,0-.4-1.583l-.99-.792v-.2l1.188-.2a1.141,1.141,0,0,0,1.188-1.187v-1.781a1.277,1.277,0,0,0-1.188-1.187l-1.385-.2v-.2l.99-.792c.2-.2.594-.4.594-.792a1.784,1.784,0,0,0-.2-.99l-.99-1.583c-.2-.2-.4-.594-.792-.594h-.792l-1.385.594-.2-.2.594-1.781a1.483,1.483,0,0,0,.2-.99c0-.4-.2-.594-.594-.792l-1.583-.99a1.483,1.483,0,0,0-.99-.2c-.4,0-.594.2-.594.4l-.99,1.188h-.2l-.2-1.188a1.141,1.141,0,0,0-1.187-1.187h-1.781a1.141,1.141,0,0,0-1.187,1.188l-.4,1.188h-.2l-.792-.99c-.2-.2-.4-.594-.792-.594a1.784,1.784,0,0,0-.99.2l-1.781.99a1.1,1.1,0,0,0-.4,1.583l.594,1.385-.2.2-1.385-.4a1.483,1.483,0,0,0-.99-.2c-.4,0-.594.2-.792.594l-.99,1.583a1.434,1.434,0,0,0,.4,1.583l1.188.792v.2l-1.188.2a1.141,1.141,0,0,0-1.187,1.187v1.781a1.277,1.277,0,0,0,1.187,1.187l1.385.2v.2l-.99.792a1.289,1.289,0,0,0-.4,1.781l.99,1.583c.2.2.4.594.792.594h.792l1.385-.594.2.2-.792,1.781a1.483,1.483,0,0,0-.2.99c0,.4.2.594.594.792l1.583.99a1.037,1.037,0,0,0,1.583-.4l.99-.99h.2l.2,1.188a1.141,1.141,0,0,0,1.188,1.188h1.781a1.141,1.141,0,0,0,1.188-1.187l.2-1.385h.2l.792.99c.2.2.4.594.792.594a1.784,1.784,0,0,0,.99-.2l.99-.594v.4l.4.792-.2.2-.792-.2a.371.371,0,0,0-.594,0c-.2,0-.4.2-.594.4l-.594.99a.371.371,0,0,0,0,.594.426.426,0,0,0,.4.4l.792.594v.2l-.792.2a.851.851,0,0,0-.792.792v1.187a.851.851,0,0,0,.792.792l.99.2v.2l-.594.594c-.2.2-.4.2-.4.594v.594l.594.99c.2.2.2.4.594.4h.594l.792-.4.2.2-.2.792a.371.371,0,0,0,0,.594c.2.2.2.4.4.594l.99.594c.4.2.99,0,.99-.2l.594-.792h.2l.2.792a.851.851,0,0,0,.792.792h1.188a.851.851,0,0,0,.792-.792l.2-.99h.2l.594.594c.2.2.2.4.594.4h.594l.99-.594c.2-.2.4-.2.4-.594v-.594l-.4-.792.2-.2.792.2a.952.952,0,0,0,1.188-.4l.594-.99c.2-.4,0-.99-.2-.99l-.792-.594v-.2l.792-.2a.851.851,0,0,0,.792-.792V205.4A.883.883,0,0,0,223.884,204.806Zm-13.26-7.521.4,1.385-.792.4-.99-1.187-.4-.594-.792.2c-.4.2-.792.2-1.187.4l-.594.2-.2,2.177h-.792l-.4-2.177-.594-.2a2.813,2.813,0,0,1-1.187-.4l-.99-.4-.2.792-.99,1.187-.594-.4.4-1.385.4-.594-.594-.594c-.4-.2-.594-.594-.99-.99l-.594-.594-.594.4-1.385.594-.4-.792.99-.99.792-.4-.2-.792c-.2-.4-.2-.792-.4-1.187l-.2-.594-2.177-.4v-.792l2.177-.4.2-.594a2.813,2.813,0,0,1,.4-1.188l.2-.792-.594-.4-1.187-.99.4-.594,1.385.4.594.4.594-.594c.2-.4.594-.594.99-.99l.594-.594-.4-.594-.4-1.385.594-.2.99.99.4.594.594-.2c.4-.2.792-.2,1.188-.4h.792l.4-2.177h.792l.4,2.177.594.2a2.813,2.813,0,0,1,1.187.4l.792.2.4-.594.99-1.188.792.4-.4,1.385-.4.594.4.594c.4.2.594.594.99.99l.594.594.594-.4,1.385-.594.4.792-.99.99-.99.2.2.792c.2.4.2.792.4,1.188l.2.594,2.177.4v.792l-2.177.4-.2.594a2.813,2.813,0,0,1-.4,1.188l-.2.792.594.4,1.187.99-.4.792-1.385-.594-.594-.4-.594.594c-.2.4-.594.594-.99.99l-.594.594Zm12.865,9.3-1.385.2v.4c0,.2-.2.594-.2.792l-.2.4,1.188.792-.2.4-.99-.2-.4-.2-.594.594-.594.594-.4.4.4.4.4.792-.4.2-.594-.594v-.594l-.792.4c-.2,0-.594.2-.792.2h-.4l-.2,1.385h-.594l-.2-1.385h-.4c-.2,0-.594-.2-.792-.2l-.594-.2-.2.4-.594.792-.4-.2.4-.792.4-.4-.4-.4-.594-.594-.4-.4-1.385.594-.792-.792.792-.594.4-.2-.2-.594c0-.2-.2-.594-.2-.792v-.4l-1.385-.2v-.594l1.385-.2v-.4c0-.2.2-.594.2-.792l.2-.594-.594-.2-.594-.594.2-.4.792.2.4.4.4-.4.594-.594.4-.4-.2-.4-.4-.792.4-.2.594.594v.792l.99-.4c.2,0,.594-.2.792-.2h.4l.2-1.385h.594l.2,1.385h.4c.2,0,.594.2.792.2l.4.2.4-.4.4-.594.4.2-.4.99-.2.4.4.4.594.594.4.4.4-.4.792-.4.2.4-.594.594-.594.2.2.594c0,.2.2.594.2.792v.4l1.385.2v.4Z" transform="translate(-179.155 -164.629)" fill="#fff"/>
      <path id="路径_297" data-name="路径 297" d="M461.281,510.691a2.969,2.969,0,1,0,2.969,2.969A3.044,3.044,0,0,0,461.281,510.691Zm0,4.948a1.781,1.781,0,1,1,1.781-1.781A1.774,1.774,0,0,1,461.281,515.638Z" transform="translate(-423.677 -472.097)" fill="#fff"/>
    </g>
  </g>
</svg>
