<svg xmlns="http://www.w3.org/2000/svg" width="11.926" height="16" viewBox="0 0 11.926 16">
  <path id="voice" d="M134.823,12.445l0,1.372,2.653,0v1.333l-3.248,0c-.022,0-.042.007-.065.007s-.042,0-.065-.007l-3.248,0V13.822l2.647,0,0-1.375a5.98,5.98,0,0,1-5.3-5.951h1.317a4.648,4.648,0,0,0,4.581,4.649c.02,0,.039-.006.06-.006s.039,0,.059.006A4.648,4.648,0,0,0,138.8,6.494h1.333A5.981,5.981,0,0,1,134.823,12.445Zm-.656-2.624a3.321,3.321,0,0,1-3.313-3.329h.007L130.855,2.5a3.312,3.312,0,1,1,6.625-.03c0,.006,0,.011,0,.018l.006,4a.671.671,0,0,1-.012.123A3.318,3.318,0,0,1,134.167,9.82Zm1.994-3.33L136.155,2.5h-.005a1.985,1.985,0,1,0-3.969,0h0l.006,3.992v.017a1.984,1.984,0,1,0,3.967-.015h.01l0,0Zm-2.01-.664h0Z" transform="translate(-128.201 0.843)" fill="#595959"/>
</svg>
