<?xml version="1.0" encoding="utf-8"?>
<!-- Generator: Adobe Illustrator 23.0.1, SVG Export Plug-In . SVG Version: 6.00 Build 0)  -->
<svg version="1.1" id="图层_1" xmlns="http://www.w3.org/2000/svg" xmlns:xlink="http://www.w3.org/1999/xlink" x="0px" y="0px"
	 viewBox="0 0 634.9 228.9" style="enable-background:new 0 0 634.9 228.9;" xml:space="preserve">
<style type="text/css">
	.st0{fill:#FFFFFF;}
	.st1{fill:#1EA7DD;}
</style>
<path class="st0" d="M8.1,162.3v-49.6h10v49.6H8.1z"/>
<path class="st0" d="M27.8,162.3v-49.6h9.7l20.3,33.1v-33.1h9.3v49.6H57L37,130v32.3H27.8z"/>
<path class="st0" d="M77.7,162.3v-49.6h34v8.4h-24v11.7h20.7v8.4H87.7v21.1H77.7z"/>
<path class="st0" d="M117.9,137.8c-0.1-4.3,0.6-8.7,2.3-12.7c1.1-2.5,2.7-4.8,4.6-6.8c1.8-1.9,4-3.4,6.4-4.5c3.4-1.4,7-2,10.7-2
	c7.3,0,13.1,2.3,17.5,6.8s6.6,10.8,6.6,18.9c0,8-2.2,14.3-6.6,18.8s-10.2,6.8-17.4,6.8c-7.4,0-13.2-2.2-17.6-6.7
	C120.1,151.9,117.9,145.7,117.9,137.8z M128.2,137.5c0,5.6,1.3,9.9,3.9,12.8c2.5,2.8,6.1,4.4,9.9,4.3c3.8,0.1,7.4-1.5,9.8-4.3
	c2.6-2.9,3.8-7.2,3.8-12.9s-1.2-10-3.7-12.7c-5.3-5.5-14.1-5.6-19.6-0.3c-0.1,0.1-0.2,0.2-0.3,0.3
	C129.5,127.6,128.2,131.8,128.2,137.5L128.2,137.5z"/>
<path class="st0" d="M173.8,162.3v-49.6h21.1c5.3,0,9.2,0.4,11.6,1.3c2.4,0.9,4.4,2.6,5.8,4.7c1.5,2.3,2.2,5.1,2.2,7.8
	c0.1,3.4-1,6.7-3.3,9.2c-2.2,2.4-5.5,4-9.8,4.6c2,1.1,3.8,2.5,5.4,4.2c2.1,2.5,4,5.2,5.7,8l6,9.7h-12l-7.2-10.8
	c-1.6-2.5-3.4-5-5.3-7.3c-0.8-0.9-1.9-1.6-3-2.1c-1.6-0.4-3.3-0.6-5-0.6h-2v20.7L173.8,162.3z M183.9,133.7h7.4c4.8,0,7.8-0.2,9-0.6
	c1.1-0.4,2.1-1.1,2.8-2.1c0.7-1.1,1.1-2.4,1-3.7c0.1-1.5-0.4-2.9-1.3-4c-1-1.1-2.3-1.8-3.7-1.9c-0.8-0.1-3.3-0.2-7.3-0.2H184
	L183.9,133.7z"/>
<path class="st0" d="M223.7,162.3v-49.6h15l9,33.8l8.9-33.8h15v49.6h-9.3v-39l-9.8,39h-9.6l-9.8-39v39L223.7,162.3L223.7,162.3z"/>
<path class="st0" d="M326.2,162.3h-10.9l-4.3-11.2h-19.8l-4.1,11.2h-10.6l19.3-49.6h10.6L326.2,162.3z M307.8,142.7l-6.8-18.3
	l-6.7,18.4L307.8,142.7z"/>
<path class="st0" d="M337.5,162.3v-41.2h-14.7v-8.4h39.4v8.4h-14.7v41.2H337.5z"/>
<path class="st0" d="M368.3,162.3v-49.6h10v49.6H368.3z"/>
<path class="st0" d="M419.6,144.1l9.7,3.1c-1.5,5.4-4,9.4-7.4,12.1c-3.5,2.6-7.8,3.9-13.2,3.9c-6.1,0.2-12-2.3-16.2-6.7
	c-4.2-4.5-6.4-10.6-6.4-18.4c0-8.3,2.1-14.7,6.4-19.2c4.3-4.6,9.9-6.8,16.8-6.8c6.1,0,11,1.8,14.8,5.4c2.5,2.5,4.2,5.7,5.1,9.1
	l-9.9,2.4c-0.9-5-5.4-8.5-10.4-8.3c-3.4-0.1-6.7,1.3-8.9,4c-2.3,2.6-3.4,6.9-3.4,12.8c0,6.2,1.1,10.7,3.4,13.4
	c2.2,2.6,5.4,4.1,8.8,4c2.5,0.1,5-0.9,6.9-2.5C417.4,150.4,418.8,147.7,419.6,144.1z"/>
<path class="st0" d="M435.4,146.2l9.7-0.9c0.6,3.3,1.8,5.7,3.6,7.2c2.1,1.6,4.6,2.4,7.3,2.3c3.2,0,5.6-0.7,7.3-2
	c1.5-1.1,2.4-2.9,2.5-4.8c0-1.1-0.3-2.2-1-3c-1-1-2.2-1.8-3.6-2.1c-1.2-0.4-3.8-1.1-8-2.2c-5.4-1.3-9.1-3-11.3-4.9
	c-5-4.3-6-11.6-2.4-17.1c1.5-2.3,3.7-4,6.2-5c3.1-1.2,6.4-1.8,9.7-1.7c6.2,0,10.9,1.4,14,4.1c3.2,2.7,5,6.7,5,10.9l-10,0.4
	c-0.4-2.5-1.3-4.4-2.8-5.5c-1.4-1.1-3.5-1.7-6.3-1.7c-2.4-0.1-4.8,0.5-6.8,1.8c-1,0.7-1.6,1.9-1.6,3.1s0.5,2.3,1.5,3
	c1.3,1.1,4.3,2.2,9.2,3.3c3.7,0.8,7.4,2,10.8,3.6c2.2,1.1,4.1,2.9,5.5,5c2.8,5,2.6,11.1-0.4,15.9c-1.6,2.5-3.9,4.4-6.7,5.5
	c-3.4,1.3-7.1,1.9-10.8,1.8c-6.2,0-11.1-1.4-14.4-4.3C438,156,436,151.8,435.4,146.2z"/>
<path class="st0" d="M494.9,155.2v-12.9h-13v-8.9h13v-12.9h8.7v12.9h13v8.9h-13v12.9H494.9z"/>
<path class="st0" d="M535.3,155.2v-12.9h-13v-8.9h13v-12.9h8.7v12.9h13v8.9h-13v12.9H535.3z"/>
<path class="st1" d="M11.3,32.2h34.1c6.7,0,12.2,0.9,16.3,2.7c4,1.7,7.6,4.4,10.3,7.9c2.8,3.5,4.8,7.6,5.9,11.9
	c1.2,4.7,1.9,9.5,1.8,14.4c0,7.9-0.9,14.1-2.7,18.5c-1.7,4.2-4.2,7.9-7.5,11c-2.9,2.8-6.5,4.8-10.3,5.9c-4.5,1.3-9.1,1.9-13.7,2
	H11.3V32.2z M34.3,49v40.6h5.6c4.8,0,8.2-0.5,10.2-1.6c2.2-1.3,3.9-3.2,4.8-5.6c1.2-2.7,1.7-7,1.7-12.9c0-7.9-1.3-13.3-3.8-16.2
	C50.2,50.5,45.9,49,40,49H34.3z"/>
<path class="st1" d="M91.7,32.2h61.6v15.9h-38.5v11.8h35.8v15.2h-35.8v14.6h39.6v16.9H91.7V32.2z"/>
<path class="st1" d="M166.7,32.2h61.6v15.9h-38.5v11.8h35.8v15.2h-35.8v14.6h39.7v16.9h-62.7L166.7,32.2L166.7,32.2z"/>
<path class="st1" d="M241.7,32.2h38.2c8.3,0,14.6,2,18.7,5.9c4.2,4,6.2,9.6,6.2,16.9c0,7.5-2.3,13.4-6.8,17.6s-11.4,6.4-20.7,6.3
	h-12.6v27.6h-23.1L241.7,32.2L241.7,32.2z M264.8,63.9h5.6c4.4,0,7.6-0.8,9.4-2.3s2.7-3.6,2.7-5.9c0-2.2-0.8-4.3-2.3-5.9
	c-1.6-1.6-4.5-2.4-8.8-2.4h-6.6L264.8,63.9z"/>
<polygon class="st0" points="403.9,68.1 419.9,65.5 430.1,78.1 424.3,93.3 408.3,95.8 398.1,83.2 "/>
<polygon class="st0" points="422.3,20 438.3,17.4 448.5,30 442.7,45.2 426.7,47.7 416.5,35.1 "/>
<polygon class="st0" points="353.1,76.2 369.1,73.6 379.3,86.2 373.5,101.4 357.5,103.9 347.3,91.3 "/>
<polygon class="st0" points="371.4,28.1 387.5,25.5 397.7,38.1 391.9,53.3 375.9,55.8 365.7,43.2 "/>
<polygon class="st0" points="320.6,36.2 336.6,33.6 346.8,46.2 341.1,61.4 325,63.9 314.8,51.4 "/>
<polygon class="st1" points="399.2,38.7 415.2,36.1 425.5,48.7 419.7,63.9 403.6,66.5 393.4,53.9 "/>
<polygon class="st1" points="376.1,57.4 392.2,54.9 402.4,67.5 396.6,82.6 380.6,85.2 370.3,72.6 "/>
<polygon class="st1" points="325.3,65.6 341.3,63 351.5,75.6 345.7,90.8 329.7,93.3 319.5,80.7 "/>
<rect x="599" y="47.4" class="st1" width="6.6" height="97.1"/>
</svg>
