<svg xmlns="http://www.w3.org/2000/svg" width="27.902" height="26.007" viewBox="0 0 27.902 26.007">
  <g id="组_2880" data-name="组 2880" transform="translate(-722 -106.993)">
    <path id="路径_33" data-name="路径 33" d="M22.182,5.274a.82.82,0,0,1,.82.82V26.6a.82.82,0,0,1-.82.82H6.094a.83.83,0,0,1-.82-.82V6.094a.83.83,0,0,1,.82-.82H22.182m0-1.64H6.094a2.46,2.46,0,0,0-2.46,2.46V26.6a2.46,2.46,0,0,0,2.46,2.46H22.182a2.46,2.46,0,0,0,2.46-2.46V6.094A2.46,2.46,0,0,0,22.182,3.634Z" transform="translate(718.366 103.36)" fill="#4e8cee"/>
    <path id="路径_35" data-name="路径 35" d="M135.682,276.532H125.09a.088.088,0,0,0-.078.088v1.787a.088.088,0,0,0,.078.088h10.592a.088.088,0,0,0,.078-.088V276.62A.088.088,0,0,0,135.682,276.532Zm-3.368,3.9H125.09a.078.078,0,0,0-.088.078v1.806a.078.078,0,0,0,.088.078h7.224a.078.078,0,0,0,.078-.078v-1.8a.078.078,0,0,0-.078-.078Zm-2.987,4.393H125.09a.088.088,0,0,0-.078.088v1.757a.088.088,0,0,0,.078.088h4.237a.078.078,0,0,0,.127-.088v-1.747a.078.078,0,0,0-.078-.088Z" transform="translate(600.258 -162.207)" fill="#4e8cee"/>
    <g id="椭圆_2" data-name="椭圆 2" transform="translate(734.902 118)" fill="#fff" stroke="#4e8cee" stroke-width="1">
      <circle cx="7.5" cy="7.5" r="7.5" stroke="none"/>
      <circle cx="7.5" cy="7.5" r="7" fill="none"/>
    </g>
    <g id="组_2777" data-name="组 2777" transform="translate(20)">
      <path id="路径_31" data-name="路径 31" d="M266.073,274.024l-.058-2.751a.947.947,0,0,1,.24-.875l4.944-5.55a.81.81,0,0,1,1.135-.077l2.039,1.818a.8.8,0,0,1,.058,1.135l-1.241,1.4a.6.6,0,0,1-.9-.789l.981-1.116-1.424-1.289-4.627,5.194a.267.267,0,0,0,.01.087l.029,1.462,1.279-.144a.418.418,0,0,0,.058-.067l2.539-2.79a.6.6,0,0,1,.885.808l-2.539,2.789a2.2,2.2,0,0,1-.26.25.809.809,0,0,1-.616.212ZM266.034,271.321Z" transform="translate(452.547 -144.009)" fill="#4e8cee"/>
      <path id="路径_32" data-name="路径 32" d="M674.454,509.22a.589.589,0,0,1-.433-.183l-1.857-1.914a.6.6,0,0,1,.856-.837l1.857,1.914a.6.6,0,0,1-.01.846A.526.526,0,0,1,674.454,509.22Z" transform="translate(50.909 -383.908)" fill="#4e8cee"/>
    </g>
  </g>
</svg>
