<svg xmlns="http://www.w3.org/2000/svg" width="24" height="24" viewBox="0 0 24 24">
  <g id="组_2881" data-name="组 2881" transform="translate(-1741 -896)">
    <g id="组_2827" data-name="组 2827" transform="translate(119 1)">
      <rect id="矩形_1278" data-name="矩形 1278" width="24" height="24" rx="4" transform="translate(1622 895)" fill="#f25b24"/>
    </g>
    <g id="shanchu-2" transform="translate(1614.686 776.847)">
      <path id="路径_41" data-name="路径 41" d="M395.9,335.444a.7.7,0,0,0,.654-.73v-10.34a.658.658,0,1,0-1.309,0v10.34A.7.7,0,0,0,395.9,335.444Zm4.254,0a.7.7,0,0,0,.654-.73v-10.34a.658.658,0,1,0-1.309,0v10.34A.7.7,0,0,0,400.158,335.444Z" transform="translate(-259.804 -197.437)" fill="#fff"/>
      <path id="路径_42" data-name="路径 42" d="M145.7,124.9h-6.212v-.984a.765.765,0,0,0-.763-.763h-.8a.765.765,0,0,0-.763.763v.984h-6.242a.61.61,0,1,0,0,1.22h.892v11.654a1.669,1.669,0,0,0,1.7,1.639h9.625a1.669,1.669,0,0,0,1.7-1.639V126.119h.872a.61.61,0,1,0,0-1.22Zm-2.089,12.874a.457.457,0,0,1-.475.419h-9.625a.456.456,0,0,1-.475-.419V126.119h10.579v11.654Z" transform="translate(0 0)" fill="#fff"/>
    </g>
  </g>
</svg>
