<svg xmlns="http://www.w3.org/2000/svg" width="24" height="24" viewBox="0 0 24 24">
  <g id="组_2882" data-name="组 2882" transform="translate(-1769 -896)">
    <g id="组_2828" data-name="组 2828" transform="translate(147 1)">
      <rect id="矩形_1278" data-name="矩形 1278" width="24" height="24" rx="4" transform="translate(1622 895)" fill="#f2b324"/>
    </g>
    <g id="wj-thwj" transform="translate(1693 836)">
      <path id="路径_43" data-name="路径 43" d="M217.134,224.682c0-.377-.209-.682-.466-.682h-5.6c-.257,0-.466.3-.466.682s.209.682.466.682h5.6C216.927,225.364,217.134,225.059,217.134,224.682Zm0,4.092c0-.377-.209-.682-.466-.682h-5.6c-.257,0-.466.3-.466.682s.209.682.466.682h5.6C216.927,229.455,217.134,229.151,217.134,228.773Zm-6.068,3.41c-.257,0-.466.3-.466.682s.209.682.466.682h2.8c.257,0,.466-.3.466-.682s-.209-.682-.466-.682Z" transform="translate(-127.705 -157.661)" fill="#fff"/>
      <path id="路径_44" data-name="路径 44" d="M91.072,78H82.829a.6.6,0,0,1-.61-.583V65.749a.6.6,0,0,1,.61-.583h9.809a.6.6,0,0,1,.61.583v5.831a.61.61,0,0,0,1.219,0V65.166A1.2,1.2,0,0,0,93.247,64H82.221A1.2,1.2,0,0,0,81,65.166V78a1.2,1.2,0,0,0,1.219,1.166h8.853a.584.584,0,1,0,0-1.166Z" fill="#fff"/>
      <path id="路径_45" data-name="路径 45" d="M580.418,563.338H578.3l.338-.338a.469.469,0,0,0-.33-.8.462.462,0,0,0-.33.137l-1.136,1.136a.167.167,0,0,0-.016.018.466.466,0,0,0-.12.313.461.461,0,0,0,.12.313l.016.018,1.136,1.136a.468.468,0,0,0,.662-.662l-.339-.335h2.123a.936.936,0,1,1-.015,1.872h-.439a.468.468,0,0,0,0,.936h.433a1.872,1.872,0,1,0,.021-3.743Z" transform="translate(-485.29 -487.919)" fill="#fff"/>
    </g>
  </g>
</svg>
