<svg xmlns="http://www.w3.org/2000/svg" width="18" height="18" viewBox="0 0 18 18">
  <g id="guanbi-6" transform="translate(-121 -67.861)">
    <g id="路径_112" data-name="路径 112" transform="translate(121 67.861)" opacity="0.677">
      <path d="M 9 17.5 C 4.313079833984375 17.5 0.5 13.68692016601562 0.5 9 C 0.5 4.313079833984375 4.313079833984375 0.5 9 0.5 C 13.68692016601562 0.5 17.5 4.313079833984375 17.5 9 C 17.5 13.68692016601562 13.68692016601562 17.5 9 17.5 Z" stroke="none"/>
      <path d="M 9 1 C 4.588789939880371 1 1 4.588789939880371 1 9 C 1 13.41121006011963 4.588789939880371 17 9 17 C 13.41121006011963 17 17 13.41121006011963 17 9 C 17 4.588789939880371 13.41121006011963 1 9 1 M 9 0 C 13.97056007385254 0 18 4.029439926147461 18 9 C 18 13.97056007385254 13.97056007385254 18 9 18 C 4.029439926147461 18 0 13.97056007385254 0 9 C 0 4.029439926147461 4.029439926147461 0 9 0 Z" stroke="none" fill="#fff"/>
    </g>
    <path id="路径_106" data-name="路径 106" d="M350.933,344.459l-2.7,2.7-2.7-2.7a.763.763,0,1,0-1.079,1.079l2.7,2.7-2.7,2.7a.763.763,0,1,0,1.079,1.079l2.7-2.7,2.7,2.7a.763.763,0,1,0,1.079-1.079l-2.7-2.7,2.7-2.7a.763.763,0,1,0-1.079-1.079Z" transform="translate(-218.236 -271.374)" fill="#fff" opacity="0.9"/>
  </g>
</svg>
