<svg xmlns="http://www.w3.org/2000/svg" width="20.057" height="21.678" viewBox="0 0 20.057 21.678">
  <path id="liebiao" d="M115.037,84.684H101.042a3.032,3.032,0,0,1-3.031-3.034V67.613a3.033,3.033,0,0,1,3.031-3.034h2.346v-.815a.758.758,0,1,1,1.516,0v.815h6.223v-.815a.758.758,0,1,1,1.516,0v.815h2.394a3.033,3.033,0,0,1,3.031,3.034V81.651A3.032,3.032,0,0,1,115.037,84.684Zm1.516-17.072a1.516,1.516,0,0,0-1.516-1.517h-2.394v.791a.758.758,0,1,1-1.516,0V66.1H104.9v.791a.758.758,0,1,1-1.516,0V66.1h-2.346a1.516,1.516,0,0,0-1.516,1.517V81.651a1.516,1.516,0,0,0,1.516,1.517h13.995a1.516,1.516,0,0,0,1.516-1.517V67.613Zm-3.886,11.626H103.34a.758.758,0,0,1,0-1.517h9.327a.758.758,0,0,1,0,1.517Zm0-3.824H103.34a.758.758,0,0,1,0-1.517h9.327a.758.758,0,0,1,0,1.517Zm0-3.9H103.34a.758.758,0,0,1,0-1.517h9.327a.758.758,0,0,1,0,1.517Z" transform="translate(-98.011 -63.006)" fill="#4e8cee"/>
</svg>
